{
  "accessors": [
    {
      "bufferView": 1,
      "componentType": 5126,
      "count": 15342,
      "max": [
        3.0325000286102295,
        4.130149841308594,
        0.09272380918264389
      ],
      "min": [
        -0.032499998807907104,
        0.13039284944534302,
        -6.332499980926514
      ],
      "type": "VEC3"
    },
    {
      "bufferView": 1,
      "byteOffset": 184104,
      "componentType": 5126,
      "count": 15342,
      "max": [
        1.0,
        1.0,
        1.0
      ],
      "min": [
        -1.0,
        -1.0,
        -1.0
      ],
      "type": "VEC3"
    },
    {
      "bufferView": 0,
      "componentType": 5125,
      "count": 47988,
      "type": "SCALAR"
    }
  ],
  "asset": {
    "extras": {
      "author": "kakou3991 (https://sketchfab.com/kakou3991)",
      "license": "CC-BY-4.0 (http://creativecommons.org/licenses/by/4.0/)",
      "source": "https://sketchfab.com/3d-models/industrial-stair-right-e059288a51c844608f389c81758fd53a",
      "title": "INDUSTRIAL STAIR-RIGHT"
    },
    "generator": "Sketchfab-14.87.0",
    "version": "2.0"
  },
  "bufferViews": [
    {
      "buffer": 0,
      "byteLength": 191952,
      "name": "floatBufferViews",
      "target": 34963
    },
    {
      "buffer": 0,
      "byteLength": 368208,
      "byteOffset": 191952,
      "byteStride": 12,
      "name": "floatBufferViews",
      "target": 34962
    }
  ],
  "buffers": [
    {
      "byteLength": 560160,
      "uri": "scene.bin"
    }
  ],
  "materials": [
    {
      "doubleSided": true,
      "name": "Scene_-_Root",
      "pbrMetallicRoughness": {
        "baseColorFactor": [
          0.2099684709666353,
          0.20796705214562644,
          0.20796705214562644,
          1.0
        ],
        "metallicFactor": 0.0,
        "roughnessFactor": 0.6
      }
    }
  ],
  "meshes": [
    {
      "name": "Object_0",
      "primitives": [
        {
          "attributes": {
            "NORMAL": 1,
            "POSITION": 0
          },
          "indices": 2,
          "material": 0,
          "mode": 4
        }
      ]
    }
  ],
  "nodes": [
    {
      "children": [
        1
      ],
      "name": "Sketchfab_model"
    },
    {
      "children": [
        2
      ],
      "name": "Geode"
    },
    {
      "mesh": 0,
      "name": "Object_2"
    }
  ],
  "scene": 0,
  "scenes": [
    {
      "name": "Sketchfab_Scene",
      "nodes": [
        0
      ]
    }
  ]
}
